<svg width="756" height="140" viewBox="0 0 756 140" fill="none" xmlns="http://www.w3.org/2000/svg">
<mask id="path-1-inside-1_6_218" fill="white">
<path fill-rule="evenodd" clip-rule="evenodd" d="M432.652 12.5801L393.645 56.0666C391.753 58.1479 389.344 59.8297 386.598 60.9859C383.852 62.1421 380.841 62.7427 377.79 62.7427C374.739 62.7427 371.728 62.1421 368.982 60.9859C366.236 59.8297 363.827 58.1479 361.935 56.0666L322.704 12.3407C321.898 11.2983 321.013 10.3062 320.055 9.37094C319.956 9.23932 319.857 9.10777 319.759 8.9763C319.711 8.9681 319.664 8.9597 319.617 8.95108C314.309 3.97241 306.921 0.69443 298.654 0.161931C298.629 0.136509 298.603 0.110995 298.578 0.0853882H34.9786C15.6605 0.0853882 0 15.7459 0 35.064V70.0427C0 108.679 31.3209 140 69.9572 140H685.581C724.218 140 755.538 108.679 755.538 70.0427V35.064C755.538 15.7459 739.878 0.0853882 720.56 0.0853882H459.646C459.646 0.0860215 459.646 0.0866548 459.645 0.0872881C459.52 0.086029 459.395 0.0853978 459.269 0.0853978C448.138 0.0853978 438.341 5.05411 432.652 12.5801Z"/>
</mask>
<path fill-rule="evenodd" clip-rule="evenodd" d="M432.652 12.5801L393.645 56.0666C391.753 58.1479 389.344 59.8297 386.598 60.9859C383.852 62.1421 380.841 62.7427 377.79 62.7427C374.739 62.7427 371.728 62.1421 368.982 60.9859C366.236 59.8297 363.827 58.1479 361.935 56.0666L322.704 12.3407C321.898 11.2983 321.013 10.3062 320.055 9.37094C319.956 9.23932 319.857 9.10777 319.759 8.9763C319.711 8.9681 319.664 8.9597 319.617 8.95108C314.309 3.97241 306.921 0.69443 298.654 0.161931C298.629 0.136509 298.603 0.110995 298.578 0.0853882H34.9786C15.6605 0.0853882 0 15.7459 0 35.064V70.0427C0 108.679 31.3209 140 69.9572 140H685.581C724.218 140 755.538 108.679 755.538 70.0427V35.064C755.538 15.7459 739.878 0.0853882 720.56 0.0853882H459.646C459.646 0.0860215 459.646 0.0866548 459.645 0.0872881C459.52 0.086029 459.395 0.0853978 459.269 0.0853978C448.138 0.0853978 438.341 5.05411 432.652 12.5801Z" fill="white"/>
<path d="M393.645 56.0666L395.716 57.9488L395.722 57.942L395.728 57.9351L393.645 56.0666ZM432.652 12.5801L434.735 14.4486L434.813 14.3612L434.884 14.2676L432.652 12.5801ZM386.598 60.9859L387.684 63.5649L387.684 63.5649L386.598 60.9859ZM368.982 60.9859L367.896 63.5649L367.896 63.5649L368.982 60.9859ZM361.935 56.0666L359.853 57.9353L359.859 57.9421L359.865 57.9488L361.935 56.0666ZM322.704 12.3407L320.49 14.0523L320.553 14.1333L320.621 14.2095L322.704 12.3407ZM320.055 9.37094L317.822 11.057L317.949 11.2251L318.1 11.3724L320.055 9.37094ZM319.759 8.9763L321.999 7.29937L321.332 6.40858L320.236 6.21894L319.759 8.9763ZM319.617 8.95108L317.702 10.9921L318.304 11.556L319.115 11.704L319.617 8.95108ZM298.654 0.161931L296.677 2.14178L297.422 2.88668L298.474 2.95443L298.654 0.161931ZM298.578 0.0853882L300.572 -1.8777L299.75 -2.7129H298.578V0.0853882ZM459.646 0.0853882V-2.7129H457.542L456.958 -0.691832L459.646 0.0853882ZM459.645 0.0872881L459.617 2.88544L461.743 2.90683L462.334 0.864539L459.645 0.0872881ZM395.728 57.9351L434.735 14.4486L430.569 10.7117L391.562 54.1981L395.728 57.9351ZM387.684 63.5649C390.782 62.2603 393.534 60.3489 395.716 57.9488L391.574 54.1844C389.972 55.9468 387.906 57.399 385.512 58.4069L387.684 63.5649ZM377.79 65.541C381.205 65.541 384.586 64.8693 387.684 63.5649L385.512 58.4069C383.119 59.4149 380.477 59.9444 377.79 59.9444V65.541ZM367.896 63.5649C370.994 64.8693 374.376 65.541 377.79 65.541V59.9444C375.103 59.9444 372.462 59.4149 370.068 58.4069L367.896 63.5649ZM359.865 57.9488C362.046 60.3489 364.798 62.2603 367.896 63.5649L370.068 58.4069C367.675 57.399 365.608 55.9468 364.006 54.1844L359.865 57.9488ZM320.621 14.2095L359.853 57.9353L364.018 54.1978L324.787 10.472L320.621 14.2095ZM318.1 11.3724C318.966 12.2192 319.765 13.1147 320.49 14.0523L324.918 10.6291C324.031 9.482 323.059 8.39329 322.011 7.36952L318.1 11.3724ZM317.519 10.6532C317.619 10.7874 317.72 10.922 317.822 11.057L322.289 7.68493C322.192 7.55664 322.095 7.42813 321.999 7.29937L317.519 10.6532ZM319.115 11.704C319.17 11.7141 319.226 11.724 319.282 11.7337L320.236 6.21894C320.196 6.21217 320.158 6.20526 320.119 6.19822L319.115 11.704ZM298.474 2.95443C306.119 3.44686 312.886 6.47485 317.702 10.9921L321.531 6.9101C315.731 1.46997 307.723 -2.058 298.834 -2.63057L298.474 2.95443ZM296.584 2.04847C296.615 2.07969 296.646 2.1108 296.677 2.14178L300.632 -1.81792C300.612 -1.83778 300.592 -1.8577 300.572 -1.8777L296.584 2.04847ZM34.9786 2.88368H298.578V-2.7129H34.9786V2.88368ZM2.79829 35.064C2.79829 17.2913 17.2059 2.88368 34.9786 2.88368V-2.7129C14.115 -2.7129 -2.79829 14.2004 -2.79829 35.064H2.79829ZM2.79829 70.0427V35.064H-2.79829V70.0427H2.79829ZM69.9572 137.202C32.8664 137.202 2.79829 107.134 2.79829 70.0427H-2.79829C-2.79829 110.224 29.7754 142.798 69.9572 142.798V137.202ZM685.581 137.202H69.9572V142.798H685.581V137.202ZM752.74 70.0427C752.74 107.134 722.672 137.202 685.581 137.202V142.798C725.763 142.798 758.337 110.224 758.337 70.0427H752.74ZM752.74 35.064V70.0427H758.337V35.064H752.74ZM720.56 2.88368C738.333 2.88368 752.74 17.2913 752.74 35.064H758.337C758.337 14.2004 741.424 -2.7129 720.56 -2.7129V2.88368ZM459.646 2.88368H720.56V-2.7129H459.646V2.88368ZM462.334 0.864539C462.328 0.883852 462.323 0.899349 462.32 0.908558C462.319 0.91328 462.318 0.917078 462.317 0.919337C462.316 0.921395 462.316 0.923147 462.316 0.92276C462.316 0.922759 462.316 0.922625 462.316 0.922471C462.316 0.922305 462.316 0.922043 462.316 0.921724C462.316 0.921099 462.317 0.920091 462.317 0.918854C462.318 0.916433 462.319 0.912475 462.321 0.907592C462.324 0.89806 462.328 0.882242 462.334 0.862608L456.958 -0.691832C456.963 -0.711149 456.968 -0.726651 456.971 -0.735865C456.972 -0.740591 456.973 -0.74439 456.974 -0.746653C456.975 -0.748714 456.975 -0.750467 456.975 -0.750084C456.975 -0.750084 456.975 -0.74995 456.975 -0.749797C456.975 -0.749631 456.975 -0.74937 456.975 -0.749052C456.975 -0.748428 456.974 -0.747422 456.974 -0.746186C456.973 -0.743768 456.972 -0.739812 456.971 -0.734932C456.968 -0.725406 456.963 -0.709592 456.957 -0.689963L462.334 0.864539ZM459.269 2.88369C459.386 2.88369 459.501 2.88427 459.617 2.88544L459.673 -2.71086C459.539 -2.71221 459.404 -2.71289 459.269 -2.71289V2.88369ZM434.884 14.2676C440.008 7.48896 448.953 2.88369 459.269 2.88369V-2.71289C447.323 -2.71289 436.674 2.61927 430.419 10.8927L434.884 14.2676Z" fill="url(#paint0_linear_6_218)" mask="url(#path-1-inside-1_6_218)"/>
<defs>
<linearGradient id="paint0_linear_6_218" x1="377.769" y1="-44.6873" x2="377.769" y2="53.2529" gradientUnits="userSpaceOnUse">
<stop stop-color="#1A73E8" stop-opacity="0.47"/>
<stop offset="1" stop-opacity="0"/>
</linearGradient>
</defs>
</svg>
