<svg width="25" height="25" viewBox="0 0 25 25" fill="none" xmlns="http://www.w3.org/2000/svg">
<path d="M10.3067 19.5566C12.4366 19.5566 14.4253 18.8703 16.042 17.7265L22.1237 23.7506C22.406 24.0302 22.7781 24.17 23.163 24.17C23.997 24.17 24.6 23.5346 24.6 22.7212C24.6 22.3399 24.4717 21.984 24.1894 21.7044L18.1462 15.7057C19.4164 14.0536 20.1734 12.0074 20.1734 9.78331C20.1734 4.40736 15.7341 0.0100098 10.3067 0.0100098C4.86656 0.0100098 0.440002 4.40736 0.440002 9.78331C0.440002 15.1593 4.86656 19.5566 10.3067 19.5566ZM10.3067 17.4469C6.0598 17.4469 2.56988 13.9773 2.56988 9.78331C2.56988 5.58931 6.0598 2.11972 10.3067 2.11972C14.5408 2.11972 18.0436 5.58931 18.0436 9.78331C18.0436 13.9773 14.5408 17.4469 10.3067 17.4469Z" fill="black" fill-opacity="0.5"/>
</svg>
