<svg width="756" height="202" viewBox="0 0 756 202" fill="none" xmlns="http://www.w3.org/2000/svg">
<g filter="url(#filter0_d_4_144)">
<mask id="path-1-inside-1_4_144" fill="white">
<path fill-rule="evenodd" clip-rule="evenodd" d="M432.652 74.5801L393.645 118.067C391.753 120.148 389.344 121.83 386.598 122.986C383.852 124.142 380.841 124.743 377.79 124.743C374.739 124.743 371.728 124.142 368.982 122.986C366.236 121.83 363.827 120.148 361.935 118.067L322.704 74.3407C321.898 73.2983 321.013 72.3062 320.055 71.3709C319.956 71.2393 319.857 71.1078 319.759 70.9763C319.711 70.9681 319.664 70.9597 319.617 70.9511C314.309 65.9724 306.921 62.6944 298.654 62.1619C298.629 62.1365 298.603 62.111 298.578 62.0854H34.9786C15.6605 62.0854 0 77.7459 0 97.064V132.043C0 170.679 31.3209 202 69.9572 202H685.581C724.218 202 755.538 170.679 755.538 132.043V97.064C755.538 77.7459 739.878 62.0854 720.56 62.0854H459.646C459.646 62.086 459.646 62.0867 459.645 62.0873C459.52 62.086 459.395 62.0854 459.269 62.0854C448.138 62.0854 438.341 67.0541 432.652 74.5801Z"/>
</mask>
<path fill-rule="evenodd" clip-rule="evenodd" d="M432.652 74.5801L393.645 118.067C391.753 120.148 389.344 121.83 386.598 122.986C383.852 124.142 380.841 124.743 377.79 124.743C374.739 124.743 371.728 124.142 368.982 122.986C366.236 121.83 363.827 120.148 361.935 118.067L322.704 74.3407C321.898 73.2983 321.013 72.3062 320.055 71.3709C319.956 71.2393 319.857 71.1078 319.759 70.9763C319.711 70.9681 319.664 70.9597 319.617 70.9511C314.309 65.9724 306.921 62.6944 298.654 62.1619C298.629 62.1365 298.603 62.111 298.578 62.0854H34.9786C15.6605 62.0854 0 77.7459 0 97.064V132.043C0 170.679 31.3209 202 69.9572 202H685.581C724.218 202 755.538 170.679 755.538 132.043V97.064C755.538 77.7459 739.878 62.0854 720.56 62.0854H459.646C459.646 62.086 459.646 62.0867 459.645 62.0873C459.52 62.086 459.395 62.0854 459.269 62.0854C448.138 62.0854 438.341 67.0541 432.652 74.5801Z" fill="white"/>
<path d="M393.645 118.067L395.716 119.949L395.722 119.942L395.728 119.935L393.645 118.067ZM432.652 74.5801L434.735 76.4486L434.813 76.3612L434.884 76.2676L432.652 74.5801ZM386.598 122.986L387.684 125.565L387.684 125.565L386.598 122.986ZM368.982 122.986L367.896 125.565L367.896 125.565L368.982 122.986ZM361.935 118.067L359.853 119.935L359.859 119.942L359.865 119.949L361.935 118.067ZM322.704 74.3407L320.49 76.0523L320.553 76.1333L320.621 76.2095L322.704 74.3407ZM320.055 71.3709L317.822 73.057L317.949 73.2251L318.1 73.3724L320.055 71.3709ZM319.759 70.9763L321.999 69.2994L321.332 68.4086L320.236 68.2189L319.759 70.9763ZM319.617 70.9511L317.702 72.9921L318.304 73.556L319.115 73.704L319.617 70.9511ZM298.654 62.1619L296.677 64.1418L297.422 64.8867L298.474 64.9544L298.654 62.1619ZM298.578 62.0854L300.572 60.1223L299.75 59.2871H298.578V62.0854ZM459.646 62.0854V59.2871H457.542L456.958 61.3082L459.646 62.0854ZM459.645 62.0873L459.617 64.8854L461.743 64.9068L462.334 62.8645L459.645 62.0873ZM395.728 119.935L434.735 76.4486L430.569 72.7117L391.562 116.198L395.728 119.935ZM387.684 125.565C390.782 124.26 393.534 122.349 395.716 119.949L391.574 116.184C389.972 117.947 387.906 119.399 385.512 120.407L387.684 125.565ZM377.79 127.541C381.205 127.541 384.586 126.869 387.684 125.565L385.512 120.407C383.119 121.415 380.477 121.944 377.79 121.944V127.541ZM367.896 125.565C370.994 126.869 374.376 127.541 377.79 127.541V121.944C375.103 121.944 372.462 121.415 370.068 120.407L367.896 125.565ZM359.865 119.949C362.046 122.349 364.798 124.26 367.896 125.565L370.068 120.407C367.675 119.399 365.608 117.947 364.006 116.184L359.865 119.949ZM320.621 76.2095L359.853 119.935L364.018 116.198L324.787 72.472L320.621 76.2095ZM318.1 73.3724C318.966 74.2192 319.765 75.1147 320.49 76.0523L324.918 72.6291C324.031 71.482 323.059 70.3933 322.011 69.3695L318.1 73.3724ZM317.519 72.6532C317.619 72.7874 317.72 72.922 317.822 73.057L322.289 69.6849C322.192 69.5566 322.095 69.4281 321.999 69.2994L317.519 72.6532ZM319.115 73.704C319.17 73.7141 319.226 73.724 319.282 73.7337L320.236 68.2189C320.196 68.2122 320.158 68.2053 320.119 68.1982L319.115 73.704ZM298.474 64.9544C306.119 65.4469 312.886 68.4748 317.702 72.9921L321.531 68.9101C315.731 63.47 307.723 59.942 298.834 59.3694L298.474 64.9544ZM296.584 64.0485C296.615 64.0797 296.646 64.1108 296.677 64.1418L300.632 60.1821C300.612 60.1622 300.592 60.1423 300.572 60.1223L296.584 64.0485ZM34.9786 64.8837H298.578V59.2871H34.9786V64.8837ZM2.79829 97.064C2.79829 79.2913 17.2059 64.8837 34.9786 64.8837V59.2871C14.115 59.2871 -2.79829 76.2004 -2.79829 97.064H2.79829ZM2.79829 132.043V97.064H-2.79829V132.043H2.79829ZM69.9572 199.202C32.8664 199.202 2.79829 169.134 2.79829 132.043H-2.79829C-2.79829 172.224 29.7754 204.798 69.9572 204.798V199.202ZM685.581 199.202H69.9572V204.798H685.581V199.202ZM752.74 132.043C752.74 169.134 722.672 199.202 685.581 199.202V204.798C725.763 204.798 758.337 172.224 758.337 132.043H752.74ZM752.74 97.064V132.043H758.337V97.064H752.74ZM720.56 64.8837C738.333 64.8837 752.74 79.2913 752.74 97.064H758.337C758.337 76.2004 741.424 59.2871 720.56 59.2871V64.8837ZM459.646 64.8837H720.56V59.2871H459.646V64.8837ZM462.334 62.8645C462.328 62.8839 462.323 62.8993 462.32 62.9086C462.319 62.9133 462.318 62.9171 462.317 62.9193C462.316 62.9214 462.316 62.9231 462.316 62.9228C462.316 62.9228 462.316 62.9226 462.316 62.9225C462.316 62.9223 462.316 62.922 462.316 62.9217C462.316 62.9211 462.317 62.9201 462.317 62.9189C462.318 62.9164 462.319 62.9125 462.321 62.9076C462.324 62.8981 462.328 62.8822 462.334 62.8626L456.958 61.3082C456.963 61.2889 456.968 61.2733 456.971 61.2641C456.972 61.2594 456.973 61.2556 456.974 61.2533C456.975 61.2513 456.975 61.2495 456.975 61.2499C456.975 61.2499 456.975 61.2501 456.975 61.2502C456.975 61.2504 456.975 61.2506 456.975 61.2509C456.975 61.2516 456.974 61.2526 456.974 61.2538C456.973 61.2562 456.972 61.2602 456.971 61.2651C456.968 61.2746 456.963 61.2904 456.957 61.31L462.334 62.8645ZM459.269 64.8837C459.386 64.8837 459.501 64.8843 459.617 64.8854L459.673 59.2891C459.539 59.2878 459.404 59.2871 459.269 59.2871V64.8837ZM434.884 76.2676C440.008 69.489 448.953 64.8837 459.269 64.8837V59.2871C447.323 59.2871 436.674 64.6193 430.419 72.8927L434.884 76.2676Z" fill="url(#paint0_linear_4_144)" mask="url(#path-1-inside-1_4_144)"/>
</g>
<defs>
<filter id="filter0_d_4_144" x="-45.4722" y="0.522997" width="881.462" height="265.838" filterUnits="userSpaceOnUse" color-interpolation-filters="sRGB">
<feFlood flood-opacity="0" result="BackgroundImageFix"/>
<feColorMatrix in="SourceAlpha" type="matrix" values="0 0 0 0 0 0 0 0 0 0 0 0 0 0 0 0 0 0 127 0" result="hardAlpha"/>
<feOffset dx="17.4893" dy="1.39915"/>
<feGaussianBlur stdDeviation="31.4808"/>
<feComposite in2="hardAlpha" operator="out"/>
<feColorMatrix type="matrix" values="0 0 0 0 0 0 0 0 0 0 0 0 0 0 0 0 0 0 0.25 0"/>
<feBlend mode="normal" in2="BackgroundImageFix" result="effect1_dropShadow_4_144"/>
<feBlend mode="normal" in="SourceGraphic" in2="effect1_dropShadow_4_144" result="shape"/>
</filter>
<linearGradient id="paint0_linear_4_144" x1="377.769" y1="17.3127" x2="377.769" y2="115.253" gradientUnits="userSpaceOnUse">
<stop stop-color="#1A73E8" stop-opacity="0.47"/>
<stop offset="1" stop-opacity="0"/>
</linearGradient>
</defs>
</svg>
